<?xml version="1.0" encoding="UTF-8"?>
<svg xmlns="http://www.w3.org/2000/svg" xmlns:xlink="http://www.w3.org/1999/xlink" width="80.000mm" height="45.480mm" viewBox="33.000000 24.259979 80.000000 45.480011">
    <path transform="translate(-168.839996,272.523987)" style="stroke:#ff0000;stroke-width:0.05mm;fill:none" d="M214.360001,-247.888L214.871994,-247.104004C216.602753,-244.587341,218.826324,-242.448151,221.408005,-240.815994C224.364105,-238.869034,227.621277,-237.422913,231.048004,-236.535995C238.088531,-234.62027,245.507919,-234.581635,252.567993,-236.423996C255.041809,-237.083221,257.443115,-237.989075,259.735992,-239.128006C262.421387,-240.498871,264.870728,-242.289368,266.992004,-244.432007C268.093964,-245.594284,269.057739,-246.880112,269.864014,-248.264008L276.839996,-248.264008C279.60141,-248.264008,281.839996,-246.025436,281.839996,-243.264008L281.839996,-241.384003L281.175995,-241.367996C278.080231,-241.289886,275.084839,-240.256088,272.600006,-238.408005C271.329895,-237.415741,270.303619,-236.146072,269.600006,-234.695999C268.391785,-232.01709,268.73819,-228.893097,270.503998,-226.544006C271.645905,-224.986252,273.165833,-223.744324,274.920013,-222.936005C277.075287,-221.889969,279.444427,-221.358673,281.839996,-221.384003L281.839996,-216.147537L281.839996,-215.479996L281.079987,-215.647995C275.480255,-216.769379,269.707733,-216.701233,264.135986,-215.447998C261.694183,-214.918228,259.345398,-214.025635,257.167999,-212.800003C256.196625,-212.239212,255.29892,-211.559189,254.496002,-210.776001C253.954819,-210.227005,253.489319,-209.608246,253.112,-208.936005C252.255035,-207.380051,252.254761,-205.491806,253.112,-203.936005C253.331635,-203.525238,253.594513,-203.139069,253.895996,-202.783997L229.783997,-202.783997L229.960007,-203C230.574188,-203.774139,230.984283,-204.690155,231.151993,-205.664001C231.319519,-206.790161,231.111526,-207.939941,230.559998,-208.936005C229.974091,-209.980469,229.182083,-210.894928,228.231995,-211.623993C226.855667,-212.676651,225.336456,-213.527924,223.720001,-214.151993C221.162445,-215.139374,218.490891,-215.800598,215.768005,-216.119995C211.381744,-216.669861,206.935684,-216.510529,202.600006,-215.647995L201.839996,-215.479996L201.839996,-216.328171L201.839996,-221.384003L202.503998,-221.399994C205.599884,-221.477524,208.595352,-222.51149,211.080002,-224.360001C212.510803,-225.461349,213.621155,-226.925262,214.296005,-228.600006C215.294907,-231.341461,214.745041,-234.408279,212.856003,-236.632004C211.643738,-238.126694,210.079559,-239.297684,208.304001,-240.039993C206.271271,-240.948166,204.066269,-241.40657,201.839996,-241.384003L201.839996,-243.264008C201.839996,-246.025436,204.078568,-248.264008,206.839996,-248.264008L214.136002,-248.264008L214.360001,-247.888z"/>
    <path transform="matrix(0.035432,-0.007273,0.007273,0.035432,37.985748,17.803131)" style="stroke:#000000;stroke-width:0.05mm;fill:none" d="M1354,1200.640991C1354,1200.443604,1356.657959,1187.506104,1359.906494,1171.890991C1363.155151,1156.276001,1365.967651,1142.414551,1366.156494,1141.087891C1366.499023,1138.682617,1366.365601,1138.647705,1319.5,1128.875C1293.650024,1123.484741,1271.58313,1119.057617,1270.462524,1119.037231C1268.598389,1119.003174,1267.974487,1121.190186,1263.126221,1144.75C1260.211792,1158.912476,1257.37085,1172.674927,1256.812866,1175.33313C1255.855103,1179.897217,1255.651123,1180.130371,1253.149292,1179.522217C1247.116821,1178.055908,1239.349487,1171.354614,1235.821289,1164.572388C1231.858276,1156.954224,1232.242065,1152.369751,1239.971924,1115C1243.896729,1096.025024,1248.229492,1076.766846,1249.600098,1072.204224C1263.432007,1026.159912,1301.960327,995.545959,1339.25,1000.96991C1343.787476,1001.629883,1350.735962,1003.423218,1354.69104,1004.955078C1389.019287,1018.250916,1409.485474,1062.321289,1402.544678,1108C1400.301025,1122.765991,1387.400879,1181.353027,1385.520874,1185.314819C1381.142944,1194.540649,1370.771851,1200.973755,1360.25,1200.990234C1356.8125,1200.995605,1354,1200.838501,1354,1200.640991z"/>
    <path transform="matrix(0.035432,-0.007273,0.007273,0.035432,37.985748,17.803131)" style="stroke:#000000;stroke-width:0.05mm;fill:none" d="M1374.418945,1091.5C1374.47644,1079.939819,1374.071045,1074.894775,1372.651001,1069.5C1368.127686,1052.316162,1357.630005,1037.839478,1345.772583,1032.433838C1340.561401,1030.058105,1338.14624,1029.570923,1331.5,1029.554565C1324.515015,1029.537476,1322.614746,1029.951904,1316.522461,1032.821411C1298.611084,1041.257813,1285.557373,1057.193726,1277.97998,1079.874146C1276.257446,1085.029785,1275.219849,1089.585327,1275.674072,1089.997559C1276.128296,1090.409668,1280.099976,1091.460449,1284.5,1092.332764C1288.900024,1093.204956,1301.5,1095.804565,1312.5,1098.109497C1375.319214,1111.272949,1372.40332,1110.77417,1373.422119,1108.530762C1373.929321,1107.413818,1374.377808,1099.75,1374.418945,1091.5z"/>
    <path transform="matrix(0.035432,-0.007273,0.007273,0.035432,37.985748,17.803131)" style="stroke:#000000;stroke-width:0.05mm;fill:none" d="M1187.112305,1165.450928C1181.471313,1163.900879,1175.344849,1159.991943,1172.15686,1155.908569C1171.122681,1154.583862,1160.033691,1137.843018,1147.514893,1118.706665C1134.996094,1099.570313,1124.531616,1084.135132,1124.260498,1084.406128C1123.98938,1084.677246,1121.840088,1094.07605,1119.484253,1105.29248C1117.128418,1116.508789,1114.295166,1127.44397,1113.18811,1129.592896C1108.791626,1138.126709,1098.949707,1144.219482,1089.336548,1144.358521C1086.456909,1144.400146,1083.835327,1144.168701,1083.510864,1143.844116C1083.023804,1143.357178,1099.14209,1064.226196,1108.518188,1021.07373C1112.012329,1004.992615,1116.342163,996.633484,1126.477905,986.402039C1135.827637,976.963806,1146.093994,971.227905,1158.628052,968.439331C1171.856689,965.496216,1188.65918,967.704163,1201.019043,974.009705C1212.00708,979.615417,1222.822876,990.736267,1228.778564,1002.552307C1233.773926,1012.463013,1235.400879,1019.358276,1235.372559,1030.5C1235.328003,1048.092651,1229.901001,1061.834473,1218.084961,1074.273682C1206.206177,1086.778931,1193.329224,1092.749512,1175.806763,1093.876587L1166.113525,1094.5L1177.18103,1112C1183.268188,1121.625,1192.713623,1136.380371,1198.170898,1144.789551C1203.628174,1153.198853,1208.327637,1160.690063,1208.614136,1161.436768C1208.96814,1162.359375,1207.591187,1163.292358,1204.317505,1164.348145C1196.726563,1166.796509,1192.901489,1167.041626,1187.112305,1165.450928z"/>
    <path transform="matrix(0.035432,-0.007273,0.007273,0.035432,37.985748,17.803131)" style="stroke:#000000;stroke-width:0.05mm;fill:none" d="M1187.782715,1062.399048C1193.175781,1059.7771,1196.075928,1057.580078,1198.960083,1053.931274C1216.119385,1032.223145,1204.640259,1001.294922,1177.45813,995.99884C1162.562988,993.096741,1146.745728,1001.049988,1139.299316,1015.185913C1136.748657,1020.027893,1136.5,1021.432922,1136.5,1031C1136.5,1040.553833,1136.750854,1041.976196,1139.28418,1046.78418C1148.841309,1064.923218,1169.144775,1071.460205,1187.782715,1062.399048z"/>
    <path transform="matrix(0.035432,-0.007273,0.007273,0.035432,37.985748,17.803131)" style="stroke:#000000;stroke-width:0.05mm;fill:none" d="M1025.60022,1131.937622C1002.337585,1126.994019,981.784912,1122.106079,979.394165,1120.94873C970.679138,1116.729858,965.058044,1107.480835,965.021973,1097.300659C964.99585,1089.935913,991.871338,960.180786,994.624573,954.378723C998.507446,946.196167,1007.478394,940.123657,1016.927612,939.281494C1022.539307,938.781372,1022.901611,938.849243,1088.741455,952.735107C1098.224243,954.735046,1106.485962,956.682251,1107.100708,957.062256C1108.940918,958.199585,1105.982544,964.78833,1101.279419,970.0271C1095.787354,976.144775,1088.937134,979.147095,1080.669312,979.060059C1077.176392,979.023315,1062.638306,976.461731,1047.158081,973.155396C1029.128418,969.304565,1019.684021,967.687622,1019.428223,968.407837C1019.214905,969.008545,1017.089111,978.833435,1014.704102,990.240967C1010.936584,1008.26123,1010.573181,1011.039001,1011.933899,1011.416687C1012.795288,1011.655823,1019.575012,1013.083618,1027,1014.589478C1043.031616,1017.840881,1045.740234,1018.86969,1051.179199,1023.772705C1056.914429,1028.942871,1059.977905,1035.888794,1059.990234,1043.75C1059.995605,1047.1875,1059.662476,1050.00415,1059.25,1050.009155C1058.837524,1050.01416,1046.440674,1047.485962,1031.701416,1044.390991C1016.96228,1041.296021,1004.77002,1038.929321,1004.607483,1039.131836C1003.985596,1039.906982,992.67041,1095.998413,993.07428,1096.304321C993.308411,1096.481567,1006.099976,1099.233032,1021.5,1102.418457C1036.900024,1105.604004,1051.322876,1108.998047,1053.550781,1109.960815C1063.293701,1114.171143,1069.161011,1122.926392,1069.828003,1134.25C1070.137451,1139.501831,1069.923218,1140.982422,1068.862793,1140.920898C1068.113281,1140.877319,1048.645142,1136.834839,1025.60022,1131.937622z"/>
    <path transform="matrix(0.035432,-0.007273,0.007273,0.035432,37.985748,17.803131)" style="stroke:#000000;stroke-width:0.05mm;fill:none" d="M920.410156,1110.040527C888.091187,1103.11438,883.940125,1101.966919,873.381165,1097.040527C845.359436,1083.966797,826.571533,1061.421997,818.345703,1031C815.680542,1021.143188,815.938538,999.120483,818.843567,988.5C827.804749,955.738892,853.778992,930.642273,887.737427,921.93396C899.106873,919.018372,912.02124,917.916321,922.33374,918.981689C931.261841,919.903992,984.928833,930.719971,987.034546,932.021362C988.917175,933.184875,984.241272,942.549316,979.752869,946.604309C970.406128,955.048523,963.214539,955.824097,940.5,950.837463C927.872559,948.065369,923.443787,947.540955,912.5,947.522217C901.62738,947.503662,898.272644,947.88324,892,949.841858C868.314575,957.23761,850.430603,975.19696,845.424988,996.613281C843.285217,1005.768372,843.92627,1021.072571,846.824097,1030.015259C851.325195,1043.905518,861.359314,1056.814941,874.26593,1065.320557C885.298645,1072.591309,892.144226,1075.110962,913.858215,1079.893433C937.186218,1085.031372,941.713257,1087.494263,947.138733,1098C949.933167,1103.410889,951.14917,1116.052124,948.862854,1115.922974C948.113281,1115.880737,935.30957,1113.233521,920.410156,1110.040527z"/>
    <path transform="matrix(0.035432,-0.007273,0.007273,0.035432,37.985748,17.803131)" style="stroke:#000000;stroke-width:0.05mm;fill:none" d="M688,1066.333862C679.60675,1065.011963,669.519653,1062.377319,663.075684,1059.823975C625.513916,1044.940552,600.888611,1008.549011,601.034912,968.139526C601.204712,921.215393,632.517029,882.098877,678.5,871.367065C690.173828,868.642578,711.372192,868.868835,723.439941,871.84668C760.563843,881.007446,789.366333,911.084961,797.209229,948.881409C801.300781,968.599487,798.057495,993.143494,788.958069,1011.323608C774.309265,1040.590942,749.043091,1059.373169,716.139526,1065.454712C708.512146,1066.864502,694.206848,1067.311401,688,1066.333862z"/>
    <path transform="matrix(0.035432,-0.007273,0.007273,0.035432,37.985748,17.803131)" style="stroke:#000000;stroke-width:0.05mm;fill:none" d="M719.506042,1035.927979C739.494629,1029.761597,754.827393,1017.073486,763.375977,999.625C768.951477,988.244873,770.45459,981.276611,770.413452,967C770.380859,955.68396,770.088501,953.676514,767.327148,945.806091C759.420715,923.270874,744.507568,908.586731,721.549011,900.730835C713.464905,897.964661,711.220398,897.628723,700.5,897.580566C690.645203,897.536316,687.159241,897.942932,681,899.855164C649.182983,909.733459,629.900635,935.367554,629.740479,968C629.570435,1002.634583,652.985413,1030.844482,687.5,1037.587524C696.770386,1039.398682,710.576294,1038.682861,719.506042,1035.927979z"/>
    <path transform="matrix(0.035432,-0.007273,0.007273,0.035432,37.985748,17.803131)" style="stroke:#000000;stroke-width:0.05mm;fill:none" d="M516.176086,1025.192383C515.113403,1024.468506,518.02301,1009.16333,530.926086,947.604309C539.766724,905.426819,547,870.368225,547,869.696289C547,868.925659,541.739685,867.414673,532.75,865.603027C524.912476,864.023621,516.372803,861.840881,513.772949,860.752441C508.377716,858.493713,501.855286,851.925964,499.437622,846.317505C497.732178,842.361267,496.936554,831.741943,498.246857,830.424133C498.885162,829.782166,634.821838,857.488525,635.791565,858.458252C635.982727,858.649414,635.146729,861.112732,633.933777,863.932312C629.946228,873.201599,618.457764,881.074402,609.068481,880.971985C607.655823,880.956543,599.403931,879.449951,590.730896,877.623901C574.997009,874.31134,574.960693,874.308594,574.457886,876.401978C574.180725,877.555908,567.905823,907.398132,560.513611,942.718079C552.645569,980.311523,546.265137,1008.504211,545.124207,1010.718079C542.674683,1015.471313,537.727173,1020.170105,532.324036,1022.874817C527.646362,1025.216309,518.201416,1026.571777,516.176086,1025.192383z"/>
    <path transform="matrix(0.035432,-0.007273,0.007273,0.035432,37.985748,17.803131)" style="stroke:#000000;stroke-width:0.05mm;fill:none" d="M438.727997,1009.25C438.513489,1008.837524,441.155365,995.00592,444.598877,978.513245C448.042358,962.020508,450.635803,948.295471,450.36203,948.013245C449.730804,947.362366,353.633453,927.21698,353.117554,927.627319C352.907196,927.794678,349.920044,941.471619,346.479401,958.02063C343.038757,974.56958,339.985748,988.347595,339.694946,988.638367C338.707581,989.625732,329.515839,984.91272,326.160706,981.698792C321.785004,977.507202,318.017578,970.002625,317.362,964.172058C316.759064,958.809631,329.897156,893.698608,334.548004,879C345.26944,845.115845,370.121857,819.025269,399,811.336975C409.181519,808.626343,424.452698,809.050598,434.5,812.323303C459.127472,820.345093,476.445648,840.439758,484.638428,870.5C487.136871,879.667114,487.367157,882.040894,487.403107,899L487.442322,917.5L479.627441,953.5C475.329254,973.299988,471.025879,991.299988,470.064423,993.5C465.844299,1003.156372,455.406799,1010,444.899292,1010C441.719604,1010,438.942505,1009.662476,438.727997,1009.25z"/>
    <path transform="matrix(0.035432,-0.007273,0.007273,0.035432,37.985748,17.803131)" style="stroke:#000000;stroke-width:0.05mm;fill:none" d="M458.401794,900C458.444458,882.46167,457.282715,876.59137,451.277283,864C448.670471,858.534424,445.761566,854.557922,440.553558,849.340576C434.13797,842.913513,432.658905,841.953979,426.09314,839.959656C420.353333,838.216248,417.465027,837.875549,412.672485,838.376465C396.659454,840.05011,379.120819,853.847839,368.66156,873C364.75885,880.146362,358.491394,897.824707,359.502197,898.83551C359.852692,899.186035,381.820587,903.983643,408.319733,909.496826C455.283508,919.267822,456.523529,919.470154,457.432037,917.510437C457.944672,916.404724,458.381042,908.525024,458.401794,900z"/>
    <path transform="matrix(0.035432,-0.007273,0.007273,0.035432,37.985748,17.803131)" style="stroke:#000000;stroke-width:0.05mm;fill:none" d="M258.602783,937.950256C273.467468,930.754395,277.716248,911.983093,267.509277,898.601013C262.869629,892.518127,256.859131,890.44165,225.109985,883.953125C208.94548,880.649597,195.606827,878.071167,195.468536,878.223328C195.037827,878.697266,185.116837,927.450195,185.394592,927.727905C185.539093,927.872437,198.221924,930.654358,213.578659,933.909973C244.65155,940.497437,251.982162,941.155212,258.602783,937.950256z"/>
    <path transform="matrix(0.035432,-0.007273,0.007273,0.035432,37.985748,17.803131)" style="stroke:#000000;stroke-width:0.05mm;fill:none" d="M245.565369,855.109619C258.144012,849.396362,264.29892,836.419861,260.548767,823.519714C258.706238,817.181641,253.037476,810.194702,247.671921,807.648621C244.474075,806.131104,212.068588,798.510498,211.594452,799.16449C211.101563,799.844299,200.866486,850.19635,201.177704,850.410339C201.354965,850.532166,207.800003,852.006958,215.5,853.687561C232.175919,857.327271,239.880402,857.691711,245.565369,855.109619z"/>
    <path transform="matrix(1.51104,0,0,1.51104,-115.959549,473.836121)" style="stroke:#000000;stroke-width:0.05mm;fill:none" d="M111.335999,-284.752014C111.77282,-284.77652,112.19342,-284.580841,112.454338,-284.229645C112.715248,-283.878479,112.781189,-283.419281,112.632004,-283.007996L112.575996,-282.895996L112.512001,-282.76001L112.608002,-282.720001C113.218567,-282.455597,113.524246,-281.766571,113.311996,-281.135986C113.144867,-280.619537,112.662827,-280.270599,112.120003,-280.272003L111.919998,-280.264008L111.800003,-280.256012C111.202637,-280.259979,110.605133,-280.27063,110.008003,-280.287994C109.98954,-281.410797,109.992203,-282.533386,110.015999,-283.656006L110.031998,-284.056L110.031998,-284.18399C110.066704,-284.505096,110.33313,-284.75116,110.655998,-284.76001C110.882568,-284.773529,111.109802,-284.770813,111.335999,-284.752014z"/>
    <path transform="matrix(0.038815,0,0,0.038815,48.459747,47.367142)" style="stroke:#000000;stroke-width:0.05mm;fill:none" d="M707.537537,279.256775C702.464172,277.156769,700.5271,275.512482,696.773499,270.11969C693.797363,265.843872,693.704773,265.354797,692.892944,249.61969C692.435547,240.75386,692.099304,228.72966,692.145691,222.899231C692.253418,209.371399,691.586609,208,684.901428,208L679.873291,208L680.186646,204.75C680.468506,201.826752,680.851868,201.471649,684,201.217957C688.391541,200.864075,697.940857,198.567551,705.939758,195.94165C709.31366,194.83403,712.507507,194.195618,713.037109,194.522919C713.616882,194.881256,714,206.162766,714,222.877518C714,254.863113,714.752502,259.658875,720.302612,263.042938C727.691162,267.548004,739.142151,264.155731,743.652527,256.125671C745.895508,252.132324,746,251.067291,746,232.195663C746,208.676895,745.772827,208,737.879944,208L732.873291,208L733.186646,204.75C733.468506,201.826752,733.851868,201.471649,737,201.217957C741.658936,200.842529,752.183228,198.321579,759.066589,195.932251C762.128174,194.869522,765.16571,194,765.816589,194C766.706055,194,767.007874,203.252274,767.031799,231.25C767.067017,272.503601,766.989807,272,773.278442,272C778.598816,272,780,272.856171,780,276.106995C780,279.624023,782.189026,279.341583,756.743042,279.107941L744.986023,279L745.636597,272C745.994446,268.149994,745.959778,265,745.55957,265C744.96051,265,740.65033,268.855316,732.568298,276.620331C727.855225,281.148468,715.302002,282.470703,707.537537,279.256775z"/>
    <path transform="matrix(0.038815,0,0,0.038815,48.459747,47.367142)" style="stroke:#000000;stroke-width:0.05mm;fill:none" d="M409.25,279.18045C405.405151,278.634399,406.471222,275.627106,411.5,272.833344C416.980957,269.788391,417.11853,268.308685,416.794617,215.888962C416.45459,160.857574,417.096558,164.32045,407.137115,163.796539C401.57901,163.50415,401.495605,163.454453,401.186646,160.25L400.873291,157L429,157L457.126709,157L456.813354,160.25C456.504395,163.454453,456.42099,163.50415,450.862885,163.796539C441.039276,164.313293,441.698822,160.439011,441.592438,218.252823L441.5,268.5L459.5,268.436646C469.399994,268.401825,479.357605,268.012421,481.627991,267.57135C486.120087,266.698669,486.009064,266.895996,489.264282,254C490.551178,248.901825,490.88446,248.477112,493.826294,248.186646L497,247.873276L496.927002,257.686646C496.854065,267.491516,495.842865,277.490448,494.820923,278.512421C494.245178,279.088165,413.062622,279.721924,409.25,279.18045z"/>
    <path transform="matrix(0.038815,0,0,0.038815,48.459747,47.367142)" style="stroke:#000000;stroke-width:0.05mm;fill:none" d="M569.524109,279C569.366821,278.725006,569.452393,277.093719,569.714233,275.374908C570.163757,272.424103,570.441895,272.244781,574.701294,272.159271C582.279053,272.007172,582.003845,273.163361,581.968201,241.627548C581.934082,211.446106,581.704163,210.013855,576.889771,209.986343C571.572937,209.955963,570,208.931732,570,205.5C570,201.941086,571.547302,201.039902,577.702942,201.013657C579.464539,201.006149,581.939575,200.601593,583.202942,200.114639C584.466309,199.627686,588.200012,198.478455,591.5,197.560806C594.799988,196.643143,598.541748,195.374863,599.815063,194.742386C603.007935,193.156372,603.910583,194.916382,603.285095,201.508423C602.99707,204.543823,603.216187,207.015594,603.805603,207.379868C604.365479,207.725876,607.889954,205.495514,611.637756,202.423492C619.983765,195.582397,623.613525,193.995636,630.872131,194.01506C639.958557,194.039368,648.918701,198.175308,652.288818,203.900894C656.446472,210.964539,656.977905,215.399338,656.989197,243.127548C656.997681,264.038269,657.285217,269.991821,658.328491,270.857666C659.717285,272.010254,662.931641,272.799591,666.75,272.92569C668.566833,272.985687,669,273.577576,669,276L669,279L652.5,279L636,279L636,254.683655C636,221.415298,634.541931,214.924591,626.294556,211.478607C618.86554,208.374573,609.220154,210.971603,605.634705,217.041275C602.750183,221.924347,602.150513,266.389404,604.908936,270.852661C605.315918,271.511169,607.865417,272.151215,610.574463,272.274994C615.471619,272.498688,615.5,272.519714,615.5,275.921478L615.5,279.342957L592.655029,279.421478C580.090271,279.464661,569.681396,279.274994,569.524109,279z"/>
    <path transform="matrix(0.038815,0,0,0.038815,48.459747,47.367142)" style="stroke:#000000;stroke-width:0.05mm;fill:none" d="M794.688599,279.243439C789.036804,278.906067,788.885681,278.822388,789.188599,276.198273C789.418213,274.208618,790.297485,273.237396,792.536804,272.5C797.433594,270.887482,800.205383,268.192352,810.020142,255.5C815.123779,248.899994,819.72406,242.953354,820.242981,242.285248C820.873291,241.473602,820.49176,240.095016,819.093201,238.130875C817.941956,236.514084,817,234.901611,817,234.547592C817,234.193573,815.424988,231.441803,813.5,228.432541C811.575012,225.423294,810,222.519897,810,221.980576C810,221.441269,809.662476,220.994843,809.25,220.988525C808.837524,220.982224,807.673706,219.251343,806.663818,217.142151C803.256897,210.02655,798.128235,206,792.471985,206C790.691345,206,789.864746,205.309341,789.392273,203.426788C789.037048,202.01152,789.140991,200.505951,789.62323,200.081085C790.105469,199.656219,794.549988,198.516525,799.5,197.548416C804.450012,196.580307,809.932861,195.306183,811.684143,194.717026C814.158142,193.88475,815.239563,193.953934,816.532776,195.027222C818.276245,196.474152,833,218.341827,833,219.484253C833,219.846481,833.652039,220.794876,834.448914,221.591782C835.714172,222.85701,836.436157,222.245743,840.143921,216.770355C842.479309,213.321655,844.977295,209.90535,845.695007,209.178574C846.412781,208.451782,847,207.524139,847,207.117126C847,206.710129,847.799744,205.504776,848.777161,204.438568C849.754639,203.37236,851.585266,201.037506,852.845276,199.25C855.121094,196.021423,855.191772,196,863.568115,196L872,196L872,199.5C872,202.361603,871.62616,203,869.950317,203C865.284485,203,862.764648,205.128906,851,219.010376C847.974976,222.579666,844.93457,226.097595,844.243469,226.827972C840.867432,230.395905,840.84967,231.836609,844.108948,237.745316C845.854797,240.9104,848.119507,244.694473,849.141602,246.154373C850.163757,247.614273,851,249.098389,851,249.452408C851,249.806427,852.575012,252.558197,854.5,255.567459C856.424988,258.576721,858,261.442596,858,261.936096C858,262.429565,858.35376,262.983337,858.786133,263.166656C859.218506,263.350006,860.606384,264.972687,861.870361,266.772644C863.134277,268.572601,865.930542,270.944244,868.084229,272.042969C871.014221,273.53775,872,274.651642,872,276.467621L872,278.894562L858.125183,279.197296C845.082947,279.481842,842,278.977783,842,276.560944C842,276.273041,838.849976,270.814117,835,264.430054C831.150024,258.045959,828,252.412537,828,251.911316C828,251.410095,827.212524,251.010635,826.25,251.023651C824.808289,251.043137,815.940979,262.927551,806.497864,277.496429C805.318481,279.315948,802.611633,279.7164,794.688599,279.243439z"/>
    <path transform="matrix(0.038815,0,0,0.038815,48.459747,47.367142)" style="stroke:#000000;stroke-width:0.05mm;fill:none" d="M510.767883,276.128082C511.153992,273.497528,511.616333,273.205597,516.269348,272.65451C519.063293,272.323608,521.713806,271.478455,522.159363,270.776428C522.604858,270.074402,522.976257,256.407257,522.98468,240.404984C523.002014,207.442215,523.135498,208,515.230286,208C510.551392,208,509.671387,207.157532,510.57782,203.54599C511.090118,201.504822,511.839722,200.993225,514.358398,200.965851C517.221313,200.934723,528.220337,198.46283,537,195.877441C545.242798,193.450134,544.437744,189.747925,545,232.667725C545.275024,253.659973,545.733154,271.068115,546.018066,271.352448C546.605408,271.938629,551.380554,272.794617,554.75,272.917755C556.565063,272.9841,557,273.579926,557,276L557,279L533.673218,279L510.346375,279L510.767883,276.128082z"/>
    <path transform="matrix(0.038815,0,0,0.038815,48.459747,47.367142)" style="stroke:#000000;stroke-width:0.05mm;fill:none" d="M528,178.700104C517.813843,173.955276,517.255249,159.511215,527.068604,154.615662C537.437927,149.442764,549.394287,159.025757,545.951111,169.75C544.490662,174.29892,542.632996,176.53775,538.684631,178.507431C535.175171,180.258179,531.48761,180.324677,528,178.700104z"/>
</svg>
