<?xml version="1.0" encoding="UTF-8"?>
<svg xmlns="http://www.w3.org/2000/svg" xmlns:xlink="http://www.w3.org/1999/xlink" width="80.000mm" height="45.480mm" viewBox="110.000000 82.259995 80.000000 45.480011">
    <path transform="translate(110,82.259995)" style="stroke:#000000;stroke-width:0.05mm;fill:none" d="M12.520004,0.376007L13.031998,1.160004C14.762756,3.676666,16.986328,5.815857,19.568008,7.448013C22.524109,9.394974,25.781281,10.841095,29.208008,11.728012C36.248535,13.643738,43.667923,13.682373,50.727997,11.840012C53.201813,11.180786,55.603119,10.274933,57.895996,9.136002C60.58139,7.765137,63.030731,5.97464,65.152008,3.832001C66.253967,2.669724,67.217743,1.383896,68.024017,0L75,0C77.761414,0,80,2.238571,80,5L80,6.880005L79.335999,6.896011C76.240234,6.974121,73.244843,8.007919,70.76001,9.856003C69.489899,10.848267,68.463623,12.117935,67.76001,13.568008C66.551788,16.246918,66.898193,19.370911,68.664001,21.720001C69.805908,23.277756,71.325836,24.519684,73.080017,25.328003C75.235291,26.374039,77.604431,26.905334,80,26.880005L80,32.11647L80,32.784012L79.23999,32.616013C73.640259,31.494629,67.867737,31.562775,62.29599,32.81601C59.854187,33.345779,57.505402,34.238373,55.328003,35.464005C54.356628,36.024796,53.458923,36.704819,52.656006,37.488007C52.114822,38.037003,51.649323,38.655762,51.272003,39.328003C50.415039,40.883957,50.414764,42.772202,51.272003,44.328003C51.491638,44.73877,51.754517,45.124939,52.056,45.480011L27.944,45.480011L28.12001,45.264008C28.734192,44.489868,29.144287,43.573853,29.311996,42.600006C29.479523,41.473846,29.27153,40.324066,28.720001,39.328003C28.134094,38.283539,27.342087,37.36908,26.391998,36.640015C25.015671,35.587357,23.49646,34.736084,21.880005,34.112015C19.322449,33.124634,16.650894,32.463409,13.928009,32.144012C9.541748,31.594147,5.095688,31.753479,0.76001,32.616013L0,32.784012L0,31.935837L0,26.880005L0.664001,26.864014C3.759888,26.786484,6.755356,25.752518,9.240005,23.904007C10.670807,22.802658,11.781158,21.338745,12.456009,19.664001C13.45491,16.922546,12.905045,13.855728,11.016006,11.632004C9.803741,10.137314,8.239563,8.966324,6.464005,8.224014C4.431274,7.315842,2.226273,6.857437,0,6.880005L0,5C0,2.238571,2.238571,0,5,0L12.296005,0L12.520004,0.376007z"/>
</svg>
